<svg xmlns="http://www.w3.org/2000/svg" viewBox="0 0 400 400"><defs><style>.cls-1{fill:#fefefe;}.cls-2{fill:#393939;}.cls-3{fill:#fe004f;}.cls-4{fill:#00f6ee;}.cls-5{fill:#fd004f;}.cls-6{fill:#01f5ed;}.cls-7{fill:#13d0ca;}.cls-8{fill:none;}</style></defs><g id="Capa_2" data-name="Capa 2"><g id="Capa_1-2" data-name="Capa 1"><path d="M.07,311.19V87.82C1.12,86,.33,84,.58,82.11c.06-19.33,8.53-35.3,20.55-49.59A90.26,90.26,0,0,1,66.28,3.57,60.39,60.39,0,0,1,83,1.07q116.43,0,232.86,0c14.78,0,28.12,5.17,40.37,13,23.06,14.67,37.65,35.28,42.35,62.39a75.82,75.82,0,0,1,.85,12.89c0,73.78-.17,147.55.06,221.32.12,36.24-25.28,69.34-57.52,82A95.53,95.53,0,0,1,306.33,399q-108.69-.21-217.38-.07C49.63,398.93,12.14,370,2.3,332.1A52.64,52.64,0,0,1,.58,317.8C.34,315.6,1.11,313.32.07,311.19Z"/><path class="cls-1" d="M1,317.34c4.08,32,20.85,55.34,49.13,70.5C63.37,395,77.8,397.93,92.85,397.93c71.11,0,142.23.17,213.35-.05,52.74-.16,92.68-40.4,92.72-93q.07-105.16,0-210.33c0-44.87-28.46-80.57-72.37-91a76.82,76.82,0,0,0-17.84-1.74c-73.78,0-147.56-.2-221.34.2C52.53,2.22,19.55,26,6.82,58.52c-3,7.75-5.39,15.67-5.94,24-.09.62-.36.71-.81.28C.07,56.24.11,29.65,0,3.05,0,.56.57,0,3.06,0Q200,.11,396.94,0c2.5,0,3.06.56,3.06,3.05q-.11,197,0,393.9c0,2.49-.56,3.05-3.06,3.05Q200,399.9,3.06,400C.57,400,0,399.44,0,397c.11-26.6.07-53.19.07-79.78C.46,316.72.76,316.75,1,317.34Z"/><path class="cls-2" d="M1,317.34a2.11,2.11,0,0,0-.89-.17v-6C1.72,313,1.21,315.21,1,317.34Z"/><path class="cls-2" d="M.07,82.83l.81-.28c.34,1.85.8,3.72-.81,5.27Z"/><path class="cls-1" d="M292.82,100.39l3.81,3.25c5.81,4.12,11,9.1,17.3,12.57a87.44,87.44,0,0,0,16.88,7.33c1.71.52,3.63.72,4.89,2.26a3,3,0,0,0,.41.8c1.31,1.71,1.26,3.73,1.26,5.72,0,10.14.08,20.28,0,30.42-.06,6.45-1.48,7.34-7.84,6.95-23.26-1.44-44.81-8.08-64.47-20.63-2.52-1.61-3.63-1-3.63,1.93,0,1.33,0,2.66,0,4,0,32.57.26,65.15-.07,97.72-.41,40.52-18.31,71.52-53.95,90.8-30.32,16.41-61.89,16.44-93.2,1.45a36,36,0,0,1-5.35-3.64,18.21,18.21,0,0,1-4.41-3.18L100,334.31a37.68,37.68,0,0,1-3.78-3.59c-20.45-25.12-26.92-53.62-19.84-85,9.54-42.28,45.4-73.73,88.6-78.27,2.6-.28,5.32-.74,7.77.81a2.08,2.08,0,0,1,.45.44c1.28,1.54,1.14,3.41,1.14,5.22,0,10.28.08,20.55,0,30.83-.06,6.27-1.05,7.37-7,6.09-19.42-4.14-41.17,8-49,26.74-7,16.81-1.82,39.36,12.52,50.55,2.37,1.85,4.41,4,6.65,6l2.24,1.74c2.81,2.33,5.5,4.82,8.46,7,14.75,10.63,30.6,12.87,47,4.57,15.68-7.94,24.18-21,24.21-38.83q.15-103.08,0-206.17c0-10.94.05-11.07,11.19-11,9.64.09,19.29-.49,28.92.35a4.93,4.93,0,0,1,3.9,4c3.77,17.13,13.66,30.39,26.58,41.72A20.86,20.86,0,0,1,292.82,100.39Z"/><path class="cls-3" d="M108,340.33a107.39,107.39,0,0,0,57.34,13.83c46.43-1.74,88.65-40.71,93.77-86.79A147.28,147.28,0,0,0,260,251q0-50.31,0-100.62v-6c7.09,4.2,13.45,8.3,20.32,11.54,16.32,7.7,33.52,11.54,51.49,12.47,3.23.17,4.28-.53,4.24-3.92-.16-12.61,0-25.23.05-37.85,4.46.38,8.92.87,13.39,1.11,2,.11,2.46,1.06,2.46,2.83,0,16.28-.08,32.56,0,48.84,0,3.27-1.77,2.7-3.86,2.64a129.11,129.11,0,0,1-69.32-22.23c-.65-.44-1.37-.78-2.84-1.6V164q0,50.83,0,101.65c0,50.8-32.85,91.33-82.8,100.65-32.22,6-60.9-2.67-85.3-24.75A.72.72,0,0,1,108,340.33Z"/><path class="cls-4" d="M260.88,52.86c-12.14-.11-24.28-.19-36.43-.36-2.32,0-3.4.8-3.23,3.18.1,1.32,0,2.66,0,4q0,103.41-.06,206.82c0,26-17,45.21-43,47.09-15.59,1.13-29-4.43-38.38-17.72,11,4.29,22.13,5.71,33.62,2.06a45.44,45.44,0,0,0,31.82-43.05c.18-14.11,0-28.22,0-42.33q0-83.92-.06-167.84c0-4.61.82-6.25,5.87-6.11,14.47.38,29,.25,43.43,0,3.94,0,6.26.34,5.8,5.15-.26,2.74.63,5.58,1,8.37A.53.53,0,0,1,260.88,52.86Z"/><path class="cls-4" d="M172.77,168.26c-25.14,1.26-47.26,9.92-65.8,27.08A98.91,98.91,0,0,0,93.45,325.65c1.25,1.76,2.47,3.53,3.7,5.3a.76.76,0,0,1-1.31.31C75.62,315,63.46,293.91,60.2,268.39c-6.26-49,20.43-91.75,67-108.43a97.07,97.07,0,0,1,41.75-5c3.31.29,4.65,1.47,4.2,4.87C172.75,162.61,172.87,165.45,172.77,168.26Z"/><path class="cls-3" d="M137.56,294.12a45.15,45.15,0,0,1-23.27-47.59c3.44-19.09,19.3-34.45,38.05-37.15a41.41,41.41,0,0,1,17.29.68c3.44,1,3.45-.53,3.45-3.07,0-12.76.08-25.53.14-38.29C189,167.37,189,167.37,189,182.47v42.12c-14.43-4-27.56-2-39.51,6.09A45.11,45.11,0,0,0,136,291.05C136.53,292.05,137,293.1,137.56,294.12Z"/><path class="cls-5" d="M260.88,52.86a1.29,1.29,0,0,1,.46-.7c4.62.15,10.45-1.34,13.5.92s1.44,8.55,2.35,13a77.38,77.38,0,0,0,13.91,31.4c.68.9,1.72,1.6,1.72,2.9-15.14-10.14-24.77-24.21-29.95-41.51C262.27,56.86,262.5,54.54,260.88,52.86Z"/><path class="cls-6" d="M335.7,125.8a68.26,68.26,0,0,1-39.07-22.16c8.87,4.15,17.73,8.3,27.61,9.54.66.09,1.31.24,2,.36,3.08.58,7.5-1,9,1.18C337.28,117.64,336.06,122,335.7,125.8Z"/><path class="cls-7" d="M95.84,331.26l1.31-.31a7,7,0,0,1,2.87,3.36A6.83,6.83,0,0,1,95.84,331.26Z"/><path class="cls-3" d="M108,340.33l-.16,1.24a8.23,8.23,0,0,1-3.44-3.45C105.93,338.37,106.93,339.43,108,340.33Z"/><rect class="cls-8" width="400" height="400"/></g></g></svg>