<svg xmlns="http://www.w3.org/2000/svg" xml:space="preserve" id="ico" x="0" y="0" style="enable-background:new 0 0 400 400" version="1.1" viewBox="0 0 400 400"><style>.st0{fill:#393939}.st2{fill:#fe004f}.st3{fill:#00f6ee}</style><path d="M.3 311.1V87.8c1-1.8.3-3.8.5-5.7C1.5 45.3 32.2 13 66.5 3.5 71.9 1.9 77.6 1.1 83.2 1h232.9c40.1 1 76.9 36.2 82.7 75.4.6 4.3.9 8.6.9 12.9 0 73.8-.2 147.5.1 221.3.1 36.2-25.3 69.3-57.5 82-11.4 4.4-23.5 6.5-35.6 6.3-72.5-.1-144.9-.2-217.4-.1-43.6.1-87.1-36.7-88.4-81.1-.3-2.1.4-4.4-.6-6.6z"/><path d="M1.2 317.3c-.3-.1-.6-.2-.9-.2v-6c1.6 1.9 1.1 4.1.9 6.2zM.3 82.8l.8-.3c.3 1.8.8 3.7-.8 5.3v-5z" class="st0"/><path d="m293.7 100.4 3.8 3.2c5.8 4.1 11 9.1 17.3 12.6 5.4 3 11 5.5 16.9 7.3 1.7.5 3.6.7 4.9 2.3.1.3.2.6.4.8 1.3 1.7 1.3 3.7 1.3 5.7 0 10.1.1 20.3 0 30.4-.1 6.4-1.5 7.3-7.8 6.9-23.3-1.4-44.8-8.1-64.5-20.6-4.8-3.2-3.4 3.1-3.6 5.9 0 32.6.3 65.1-.1 97.7 2.5 75-80.7 126.9-147.1 92.3-1.9-1.1-3.7-2.3-5.3-3.6-1.6-.8-3.1-1.9-4.4-3.2l-4.5-3.8c-1.3-1.1-2.6-2.3-3.8-3.6-51.6-60.4-9.1-156.3 68.8-163.3 2.6-.3 5.3-.7 7.8.8.2.1.3.3.4.4 1.3 1.5 1.1 3.4 1.1 5.2 0 10.3.1 20.6 0 30.8-.1 6.3-1.1 7.4-7 6.1-19.4-4.1-41.2 8-49 26.7-7 16.8-1.8 39.4 12.5 50.6 2.4 1.9 4.4 4 6.6 6l2.2 1.7c2.8 2.3 5.5 4.8 8.5 7 14.8 10.6 30.6 12.9 47 4.6 15.7-7.9 24.2-21 24.2-38.8.1-68.7.1-137.4 0-206.2 0-10.9.1-11.1 11.2-11 9.6.1 19.3-.5 28.9.3 2 .4 3.6 2 3.9 4 3.8 17.1 13.7 30.4 26.6 41.7 1 1.1 1.9 2 2.8 3.1z" style="fill:#fefefe"/><path d="M107.6 340.7c61.9 36.4 142.6-2 151.8-73.3.6-5.5.9-10.9.9-16.4V143.9c22.3 14.7 45.5 23 72.1 24.1 3.2.2 4.3-.5 4.3-3.9-.2-12.7 0-25.3.1-38 4.5.4 9 .9 13.4 1.1 2 .1 2.5 1.1 2.5 2.8 0 16.4-.1 32.7 0 49.1 0 3.3-1.8 2.7-3.9 2.7-26.2-.4-50.8-9.5-72.5-23.9v107.9c2.4 87.6-105.1 136.6-168.8 76.2-.5-.4-.4-1.1.1-1.3z" class="st2"/><path d="M261.4 52.8c-12.1-.1-24.3-.2-36.4-.4-2.3 0-3.4.8-3.2 3.2 0 70.3 0 140.5-.1 210.8 0 26-17 45.2-43 47.1-15.6 1.1-29-4.4-38.4-17.7 30.4 13.4 65.1-7.2 65.4-41 .2-14.1 0-28.2 0-42.3 0-55.9 0-111.9-.1-167.8 0-4.6.8-6.2 5.9-6.1 14.5.4 29 .2 43.4 0 3.9 0 6.3.3 5.8 5.2-.3 2.7.6 5.6 1 8.4.2.2 0 .6-.3.6z" class="st3"/><path d="M173.3 168.2c-82.6 2.9-127.4 97.6-75.6 162.7-.1.6-.9.8-1.3.3-76.6-62.7-24.8-184.5 73.1-176.2 3.3.3 4.6 1.5 4.2 4.9-.4 2.7-.3 5.5-.4 8.3z" class="st3"/><path d="M137.8 294.1c-38.6-20.8-27.7-78 14.8-84.7 5.7-1 11.6-.8 17.3.7 3.4 1 3.4-.5 3.4-3.1 0-12.8.1-25.5.1-38.3 15.8-1.3 15.8-1.3 15.8 13.8v42.1c-39.6-12.1-74.1 30.8-53 66.5.6.9 1.1 2 1.6 3z" class="st2"/><path d="M261.4 52.8c.1-.3.2-.5.5-.7 4.6.2 10.5-1.3 13.5.9s1.4 8.5 2.4 13c2.2 11.4 7 22.1 13.9 31.4.7.9 1.7 1.6 1.7 2.9-15.1-10.1-24.8-24.2-30-41.5-.6-2-.4-4.3-2-6z" style="fill:#fd004f"/><path d="M336.2 125.8c-15.2-2.8-28.9-10.6-39.1-22.2 9.4 4.6 19 8.6 29.6 9.9 3.1.6 7.5-1 9 1.2 2.1 2.9.9 7.3.5 11.1z" style="fill:#01f5ed"/><path d="m96.3 331.2 1.3-.3c1.3.8 2.3 2 2.9 3.4-1.7-.4-3.2-1.5-4.2-3.1z" style="fill:#13d0ca"/><path d="m108.5 340.3-.2 1.2c-1.5-.8-2.7-2-3.4-3.5 1.5.4 2.5 1.4 3.6 2.3z" class="st2"/></svg>